<svg width="1001" height="342" viewBox="0 0 1001 342" fill="none" xmlns="http://www.w3.org/2000/svg">
<g clip-path="url(#clip0_209_63)">
<g clip-path="url(#clip1_209_63)">
<g clip-path="url(#clip2_209_63)">
<path d="M435.66 215.498C426.025 215.498 419.128 213.946 414.968 210.842C410.808 207.738 408.599 202.608 408.34 195.453C407.392 170.558 407.392 145.663 408.34 120.769C408.599 114.238 410.841 109.281 415.065 105.897C419.268 102.491 426.079 100.788 435.498 100.788C445.24 100.788 452.332 102.34 456.772 105.444C461.212 108.548 463.54 113.678 463.755 120.833C463.863 122.579 463.917 124.724 463.917 127.267C463.917 129.832 463.874 132.386 463.788 134.93C463.723 137.494 463.658 139.671 463.594 141.46H452.633C452.741 138.033 452.806 134.294 452.827 130.242C452.849 126.189 452.784 122.45 452.633 119.023C452.569 115.876 451.265 113.613 448.721 112.233C446.178 110.876 441.77 110.197 435.498 110.197C429.765 110.197 425.67 110.876 423.213 112.233C420.777 113.613 419.484 115.876 419.333 119.023C418.492 145.081 418.492 171.161 419.333 197.263C419.484 200.367 420.777 202.619 423.213 204.02C425.67 205.4 429.819 206.089 435.66 206.089C442.234 206.089 446.846 205.4 449.497 204.02C452.17 202.619 453.582 200.367 453.733 197.263C453.884 193.577 453.894 189.611 453.765 185.365C453.636 181.141 453.496 177.186 453.345 173.5H464.563C464.822 177.186 464.973 180.828 465.016 184.428C465.081 188.027 464.973 191.702 464.693 195.453C464.391 202.608 461.988 207.738 457.483 210.842C452.978 213.946 445.704 215.498 435.66 215.498ZM484.511 240.748C482.83 240.748 480.815 240.672 478.466 240.521C476.138 240.349 474.209 240.187 472.678 240.037V231.275C475.933 231.534 479.77 231.663 484.188 231.663C488.887 231.663 492.055 231.102 493.693 229.982C495.353 228.839 496.474 226.846 497.056 224.001L499.351 214.463H488.682L474.489 137.678H484.899L490.202 174.276L496.28 205.701H501.097L507.563 174.276L513.156 137.678H523.664L507.078 223.225C506.087 229.432 503.985 233.904 500.774 236.642C497.562 239.379 492.141 240.748 484.511 240.748ZM562.558 215.401C558.247 215.401 554.831 214.722 552.309 213.364C549.787 211.984 547.578 209.926 545.681 207.189H543.709V214.463H533.525V112.007H543.709V144.855H546.134C548.03 142.053 550.229 139.984 552.729 138.648C555.229 137.311 558.667 136.643 563.043 136.643C569.099 136.643 573.529 137.947 576.331 140.555C579.154 143.142 580.641 147.495 580.792 153.617C581.008 158.251 581.137 163.219 581.18 168.521C581.245 173.845 581.245 179.082 581.18 184.234C581.137 189.385 581.008 194.116 580.792 198.427C580.641 204.484 579.079 208.827 576.104 211.456C573.13 214.086 568.614 215.401 562.558 215.401ZM560.036 206.801C563.786 206.801 566.47 206.197 568.086 204.99C569.724 203.783 570.597 201.886 570.705 199.3C571.071 192.403 571.255 184.891 571.255 176.765C571.255 168.64 571.071 160.632 570.705 152.744C570.597 150.114 569.724 148.207 568.086 147.021C566.47 145.836 563.786 145.243 560.036 145.243C551.889 145.243 546.446 147.635 543.709 152.42V199.623C546.489 204.408 551.932 206.801 560.036 206.801ZM618.522 215.401C609.836 215.401 603.639 214.032 599.932 211.295C596.225 208.557 594.242 204.085 593.983 197.877C593.768 193.998 593.617 189.417 593.53 184.137C593.466 178.878 593.466 173.597 593.53 168.295C593.617 162.971 593.768 158.337 593.983 154.393C594.242 148.034 596.279 143.486 600.094 140.749C603.909 138.012 610.051 136.643 618.522 136.643C626.519 136.643 632.306 137.979 635.884 140.652C639.462 143.346 641.434 147.765 641.8 153.908C641.908 155.761 642.016 158.973 642.123 163.542C642.231 168.133 642.07 173.004 641.638 178.156H603.844C603.844 181.475 603.865 184.837 603.909 188.243C603.973 191.67 604.081 195.226 604.232 198.912C604.297 201.8 605.407 203.805 607.562 204.925C609.717 206.025 613.263 206.574 618.199 206.574C623.091 206.574 626.54 206.025 628.545 204.925C630.549 203.805 631.659 201.8 631.875 198.912C632.025 196.024 632.025 192.079 631.875 187.079H641.638C641.919 188.609 642.037 190.387 641.994 192.413C641.973 194.44 641.908 196.261 641.8 197.877C641.434 204.085 639.559 208.557 636.175 211.295C632.769 214.032 626.885 215.401 618.522 215.401ZM603.844 169.782H632.004C632.112 166.204 632.166 162.788 632.166 159.533C632.166 156.257 632.069 154.015 631.875 152.808C631.659 150.179 630.528 148.304 628.48 147.183C626.411 146.041 623.091 145.469 618.522 145.469C613.414 145.469 609.771 146.041 607.594 147.183C605.417 148.304 604.297 150.179 604.232 152.808C604.081 155.869 603.962 158.79 603.876 161.57C603.79 164.372 603.779 167.109 603.844 169.782ZM665.466 152.42V214.463H655.282V137.678H665.466V144.855H667.697C669.055 142.225 670.865 140.199 673.129 138.777C675.392 137.354 678.204 136.643 681.567 136.643C686.632 136.643 690.382 137.969 692.818 140.62C695.275 143.271 696.504 147.862 696.504 154.393C696.504 155.815 696.45 157.496 696.342 159.436C696.234 161.398 696.073 163.133 695.857 164.641H686.093C686.179 164.124 686.244 163.208 686.287 161.893C686.309 160.579 686.33 159.264 686.352 157.949C686.373 156.634 686.384 155.74 686.384 155.266C686.384 151.364 685.727 148.724 684.412 147.345C683.097 145.944 680.996 145.243 678.107 145.243C671.943 145.243 667.729 147.635 665.466 152.42ZM736.594 215.498C726.593 215.498 719.404 213.924 715.029 210.777C710.675 207.652 708.391 202.49 708.175 195.291C707.701 183.242 707.464 170.881 707.464 158.208C707.464 145.556 707.701 133.259 708.175 121.318C708.391 113.904 710.675 108.612 715.029 105.444C719.404 102.297 726.517 100.724 736.367 100.724C745.937 100.724 752.921 102.276 757.318 105.379C761.715 108.483 764.096 113.613 764.463 120.769C764.764 124.131 764.905 127.547 764.883 131.018C764.861 134.509 764.721 137.936 764.463 141.299H753.47C753.75 137.721 753.901 133.992 753.923 130.112C753.944 126.254 753.794 122.536 753.47 118.958C753.276 115.962 751.811 113.753 749.073 112.33C746.336 110.908 742.101 110.197 736.367 110.197C730.526 110.197 726.215 110.908 723.435 112.33C720.676 113.753 719.243 115.962 719.135 118.958C718.726 131.955 718.532 144.995 718.553 158.078C718.575 171.14 718.769 184.148 719.135 197.101C719.243 200.14 720.644 202.393 723.338 203.859C726.011 205.303 730.429 206.025 736.594 206.025C742.693 206.025 747.187 205.303 750.076 203.859C752.985 202.393 754.537 200.14 754.731 197.101C754.839 189.946 754.839 182.811 754.731 175.698H736.206V165.773H765.4C765.659 169.459 765.821 173.748 765.885 178.641C765.928 183.533 765.788 189.083 765.465 195.291C765.314 202.49 762.965 207.652 758.417 210.777C753.869 213.924 746.595 215.498 736.594 215.498ZM795.371 215.401C789.487 215.401 785.057 214.086 782.083 211.456C779.108 208.827 777.621 204.484 777.621 198.427V137.678H787.741V199.3C787.741 201.886 788.549 203.783 790.166 204.99C791.804 206.197 794.466 206.801 798.151 206.801C801.88 206.801 805.156 206.176 807.98 204.925C810.782 203.654 812.84 201.886 814.155 199.623V137.678H824.436V214.463H814.155V207.189H812.053C808.562 212.663 803.001 215.401 795.371 215.401ZM857.025 215.336C850.602 215.336 845.85 214.075 842.768 211.553C839.685 209.01 837.886 205.055 837.368 199.688C837.325 198.653 837.261 197.608 837.174 196.552C837.088 195.496 837.099 194.472 837.207 193.48C837.573 188.782 839.05 184.848 841.636 181.68C844.201 178.49 849.094 175.58 856.314 172.95C859.267 171.894 862.371 170.946 865.625 170.105C868.88 169.265 872.113 168.446 875.325 167.648V153.067C875.325 150.481 874.355 148.573 872.415 147.345C870.475 146.094 867.08 145.469 862.231 145.469C858.028 145.469 854.827 145.997 852.628 147.054C850.451 148.11 849.255 150.028 849.04 152.808C848.932 154.123 848.878 156.009 848.878 158.466C848.878 160.902 848.932 162.96 849.04 164.641H839.179C839.071 163.327 838.963 161.624 838.856 159.533C838.769 157.421 838.802 155.546 838.953 153.908C839.211 147.808 841.194 143.411 844.901 140.717C848.609 138.001 854.514 136.643 862.619 136.643C871.089 136.643 876.973 138.109 880.271 141.04C883.569 143.993 885.239 148.842 885.282 155.589V214.463H875.325V207.189H873.126C871.811 209.818 869.925 211.833 867.468 213.234C865.033 214.635 861.552 215.336 857.025 215.336ZM859.547 206.801C867.134 206.801 872.372 204.537 875.26 200.011V176.086C872.738 176.625 870.141 177.25 867.468 177.962C864.817 178.673 861.702 179.632 858.125 180.839C853.857 182.412 851.012 184.223 849.589 186.271C848.188 188.34 847.38 190.743 847.164 193.48C847.208 194.256 847.24 195.108 847.261 196.034C847.305 196.961 847.38 197.92 847.488 198.912C847.854 201.434 849.115 203.384 851.27 204.764C853.426 206.122 856.185 206.801 859.547 206.801ZM910.209 152.42V214.463H900.025V137.678H910.209V144.855H912.44C913.798 142.225 915.609 140.199 917.872 138.777C920.135 137.354 922.948 136.643 926.31 136.643C931.375 136.643 935.125 137.969 937.561 140.62C940.018 143.271 941.247 147.862 941.247 154.393C941.247 155.815 941.193 157.496 941.085 159.436C940.977 161.398 940.816 163.133 940.6 164.641H930.804C930.912 164.124 930.976 163.208 930.998 161.893C931.041 160.579 931.073 159.264 931.095 157.949C931.116 156.634 931.127 155.74 931.127 155.266C931.127 151.364 930.47 148.724 929.155 147.345C927.84 145.944 925.739 145.243 922.851 145.243C916.686 145.243 912.472 147.635 910.209 152.42ZM970.28 215.401C964.331 215.401 959.912 214.086 957.024 211.456C954.114 208.827 952.584 204.484 952.433 198.427C952.218 194.116 952.077 189.385 952.013 184.234C951.927 179.082 951.927 173.845 952.013 168.521C952.077 163.219 952.218 158.251 952.433 153.617C952.584 147.495 954.147 143.142 957.121 140.555C960.096 137.947 964.536 136.643 970.441 136.643C974.795 136.643 978.222 137.311 980.722 138.648C983.223 139.984 985.4 142.053 987.253 144.855H989.29V112.007H999.41V214.463H989.29V207.189H986.995C985.206 209.818 983.061 211.844 980.561 213.267C978.061 214.689 974.633 215.401 970.28 215.401ZM973.189 206.801C981.143 206.801 986.51 204.408 989.29 199.623V152.42C986.553 147.635 981.218 145.243 973.286 145.243C969.601 145.243 966.928 145.836 965.268 147.021C963.609 148.207 962.747 150.114 962.682 152.744C962.38 160.632 962.251 168.64 962.294 176.765C962.359 184.891 962.488 192.403 962.682 199.3C962.79 201.886 963.652 203.783 965.268 204.99C966.863 206.197 969.504 206.801 973.189 206.801Z" fill="white"/>
</g>
<g clip-path="url(#clip3_209_63)">
<g clip-path="url(#clip4_209_63)">
<path d="M1.35522 170.736C1.35522 76.8102 77.4973 0.666656 171.425 0.666656C265.35 0.666656 341.494 76.8087 341.494 170.736C341.494 264.662 265.352 340.805 171.425 340.805C77.4987 340.805 1.35522 264.663 1.35522 170.736ZM171.425 328.178C258.378 328.178 328.867 257.689 328.867 170.736C328.867 83.7831 258.378 13.2941 171.425 13.2941C84.4716 13.2941 13.9827 83.7831 13.9827 170.736C13.9827 257.689 84.4716 328.178 171.425 328.178Z" fill="white"/>
<g clip-path="url(#clip5_209_63)">
<g clip-path="url(#clip6_209_63)">
<path d="M237.363 269.133H105.488C104.37 269.133 103.264 268.913 102.231 268.485C101.198 268.058 100.26 267.431 99.4697 266.64C98.6794 265.85 98.0527 264.911 97.6253 263.878C97.1979 262.845 96.9782 261.739 96.9788 260.621V174.687C96.9788 173.57 97.1989 172.463 97.6266 171.431C98.0542 170.399 98.6811 169.461 99.4713 168.671C100.261 167.881 101.2 167.254 102.232 166.827C103.264 166.4 104.371 166.18 105.488 166.18H113.995V129.768C113.995 98.0523 139.707 72.3389 171.427 72.3389C203.14 72.3389 228.855 98.05 228.855 129.768V166.18H237.363C239.619 166.18 241.783 167.076 243.378 168.672C244.974 170.267 245.87 172.431 245.87 174.687V260.619C245.871 261.736 245.651 262.843 245.224 263.876C244.797 264.909 244.171 265.848 243.381 266.638C242.591 267.429 241.652 268.056 240.62 268.484C239.587 268.912 238.48 269.133 237.363 269.133ZM201.823 131.468C201.823 114.681 188.211 101.074 171.427 101.074C154.638 101.074 141.03 114.681 141.03 131.468V166.18H201.825L201.823 131.468Z" fill="white"/>
</g>
</g>
</g>
</g>
</g>
</g>
<defs>
<clipPath id="clip0_209_63">
<rect width="1001" height="342" fill="white"/>
</clipPath>
<clipPath id="clip1_209_63">
<rect width="1000" height="340.667" fill="white" transform="translate(0.394043 0.40271)"/>
</clipPath>
<clipPath id="clip2_209_63">
<rect width="591.827" height="140.024" fill="white" transform="translate(407.606 100.724)"/>
</clipPath>
<clipPath id="clip3_209_63">
<rect width="340.138" height="340.138" fill="white" transform="translate(1.35522 0.666656)"/>
</clipPath>
<clipPath id="clip4_209_63">
<rect width="340.138" height="340.138" fill="white" transform="translate(1.35522 0.666656)"/>
</clipPath>
<clipPath id="clip5_209_63">
<rect width="148.891" height="196.794" fill="white" transform="translate(96.9788 72.3389)"/>
</clipPath>
<clipPath id="clip6_209_63">
<rect width="148.891" height="196.794" fill="white" transform="translate(96.9788 72.3389)"/>
</clipPath>
</defs>
</svg>
